<svg width="30" height="31" viewBox="0 0 30 31" fill="none" xmlns="http://www.w3.org/2000/svg">
<circle cx="15" cy="15.7549" r="15" fill="white"/>
<path d="M21.2382 9.83327C20.071 9.32575 18.8394 8.96352 17.5741 8.75562C17.5626 8.75379 17.5508 8.75537 17.5404 8.76015C17.5299 8.76492 17.5212 8.77265 17.5156 8.78227C17.3569 9.04875 17.1814 9.39731 17.0588 9.67018C15.6949 9.47406 14.3075 9.47406 12.9436 9.67018C12.8068 9.3662 12.6521 9.06976 12.4801 8.78227C12.4744 8.77275 12.4657 8.76511 12.4552 8.76036C12.4448 8.7556 12.4331 8.75395 12.4216 8.75562C11.156 8.96241 9.92415 9.32483 8.75754 9.83327C8.74755 9.83688 8.7392 9.84366 8.73391 9.85246C6.40069 13.1558 5.76057 16.378 6.07444 19.5598C6.07556 19.5747 6.08569 19.5897 6.09806 19.5993C7.45674 20.5528 8.97645 21.2809 10.5924 21.7524C10.6038 21.7558 10.6161 21.7557 10.6274 21.7521C10.6387 21.7484 10.6485 21.7414 10.6554 21.7322C11.0019 21.2845 11.3101 20.8123 11.5756 20.3155C11.5812 20.3053 11.5831 20.2937 11.581 20.2823C11.579 20.271 11.5732 20.2606 11.5644 20.2527C11.5586 20.2475 11.5517 20.2435 11.5441 20.2409C11.0594 20.0644 10.59 19.8524 10.1401 19.6067C10.1276 19.6 10.1182 19.5889 10.114 19.5758C10.1099 19.5627 10.1111 19.5486 10.1176 19.5364C10.1215 19.5284 10.1273 19.5215 10.1345 19.5161C10.229 19.449 10.3235 19.3786 10.4135 19.3083C10.4215 19.3022 10.431 19.2983 10.4411 19.297C10.4512 19.2957 10.4615 19.297 10.4709 19.3008C13.4172 20.5756 16.6066 20.5756 19.5169 19.3008C19.5266 19.2968 19.5373 19.2954 19.5478 19.2967C19.5583 19.298 19.5683 19.302 19.5765 19.3083C19.6665 19.3786 19.761 19.449 19.8555 19.5161C19.8632 19.5214 19.8694 19.5284 19.8734 19.5365C19.8775 19.5446 19.8795 19.5536 19.879 19.5626C19.8786 19.5715 19.8758 19.5803 19.8709 19.588C19.866 19.5957 19.8592 19.6021 19.851 19.6067C19.4022 19.8546 18.9322 20.0664 18.4459 20.2399C18.4382 20.2425 18.4311 20.2468 18.4253 20.2523C18.4195 20.2578 18.415 20.2645 18.4122 20.2718C18.4096 20.279 18.4085 20.2865 18.4091 20.294C18.4097 20.3015 18.4119 20.3089 18.4156 20.3155C18.6856 20.8112 18.9949 21.2845 19.3347 21.7322C19.3415 21.7414 19.3513 21.7484 19.3627 21.7521C19.374 21.7557 19.3863 21.7558 19.3977 21.7524C21.0163 21.2824 22.5385 20.5542 23.8988 19.5993C23.9056 19.5948 23.9112 19.5889 23.9153 19.5821C23.9194 19.5753 23.9218 19.5676 23.9224 19.5598C24.2981 15.8813 23.2935 12.6857 21.2607 9.85352C21.2586 9.84885 21.2555 9.84463 21.2517 9.84114C21.2478 9.83765 21.2432 9.83497 21.2382 9.83327ZM12.0155 17.622C11.1279 17.622 10.3978 16.8502 10.3978 15.9037C10.3978 14.9561 11.1144 14.1844 12.0155 14.1844C12.9234 14.1844 13.6467 14.9625 13.6332 15.9037C13.6332 16.8502 12.9166 17.622 12.0155 17.622ZM17.9959 17.622C17.1094 17.622 16.3782 16.8502 16.3782 15.9037C16.3782 14.9561 17.0948 14.1844 17.9959 14.1844C18.9038 14.1844 19.6283 14.9625 19.6137 15.9037C19.6137 16.8502 18.9038 17.622 17.9959 17.622Z" fill="black"/>
</svg>
