<svg width="30" height="31" viewBox="0 0 30 31" fill="none" xmlns="http://www.w3.org/2000/svg">
<circle cx="15" cy="15.7549" r="15" fill="white"/>
<path d="M7.05 11.3099C7.15082 10.8681 7.39866 10.4737 7.75292 10.1912C8.10719 9.90869 8.54688 9.75485 9 9.75488H21C21.4531 9.75485 21.8928 9.90869 22.2471 10.1912C22.6013 10.4737 22.8492 10.8681 22.95 11.3099L15 16.1689L7.05 11.3099ZM7 12.4519V19.5559L12.803 15.9979L7 12.4519ZM13.761 16.5849L7.191 20.6119C7.35333 20.9542 7.60953 21.2433 7.92978 21.4457C8.25004 21.648 8.62117 21.7552 9 21.7549H21C21.3788 21.755 21.7498 21.6475 22.0698 21.445C22.3899 21.2424 22.6459 20.9532 22.808 20.6109L16.238 16.5839L15 17.3409L13.761 16.5849ZM17.197 15.9989L23 19.5559V12.4519L17.197 15.9979V15.9989Z" fill="black"/>
</svg>
