<svg width="30" height="31" viewBox="0 0 30 31" fill="none" xmlns="http://www.w3.org/2000/svg">
<circle cx="15" cy="15.7549" r="15" fill="white"/>
<path d="M15 7.75488C12.829 7.75488 12.556 7.76488 11.703 7.80288C10.85 7.84288 10.269 7.97688 9.76 8.17488C9.22609 8.3757 8.74249 8.69071 8.343 9.09788C7.93608 9.49758 7.62111 9.98112 7.42 10.5149C7.222 11.0229 7.087 11.6049 7.048 12.4549C7.01 13.3099 7 13.5819 7 15.7559C7 17.9279 7.01 18.1999 7.048 19.0529C7.088 19.9049 7.222 20.4859 7.42 20.9949C7.625 21.5209 7.898 21.9669 8.343 22.4119C8.787 22.8569 9.233 23.1309 9.759 23.3349C10.269 23.5329 10.849 23.6679 11.701 23.7069C12.555 23.7449 12.827 23.7549 15 23.7549C17.173 23.7549 17.444 23.7449 18.298 23.7069C19.149 23.6669 19.732 23.5329 20.241 23.3349C20.7746 23.134 21.2578 22.819 21.657 22.4119C22.102 21.9669 22.375 21.5209 22.58 20.9949C22.777 20.4859 22.912 19.9049 22.952 19.0529C22.99 18.1999 23 17.9279 23 15.7549C23 13.5819 22.99 13.3099 22.952 12.4559C22.912 11.6049 22.777 11.0229 22.58 10.5149C22.3789 9.98111 22.0639 9.49756 21.657 9.09788C21.2576 8.69056 20.774 8.37553 20.24 8.17488C19.73 7.97688 19.148 7.84188 18.297 7.80288C17.443 7.76488 17.172 7.75488 14.998 7.75488H15.001H15ZM14.283 9.19688H15.001C17.137 9.19688 17.39 9.20388 18.233 9.24288C19.013 9.27788 19.437 9.40888 19.719 9.51788C20.092 9.66288 20.359 9.83688 20.639 10.1169C20.919 10.3969 21.092 10.6629 21.237 11.0369C21.347 11.3179 21.477 11.7419 21.512 12.5219C21.551 13.3649 21.559 13.6179 21.559 15.7529C21.559 17.8879 21.551 18.1419 21.512 18.9849C21.477 19.7649 21.346 20.1879 21.237 20.4699C21.1087 20.8172 20.904 21.1313 20.638 21.3889C20.358 21.6689 20.092 21.8419 19.718 21.9869C19.438 22.0969 19.014 22.2269 18.233 22.2629C17.39 22.3009 17.137 22.3099 15.001 22.3099C12.865 22.3099 12.611 22.3009 11.768 22.2629C10.988 22.2269 10.565 22.0969 10.283 21.9869C9.9355 21.8588 9.62113 21.6545 9.363 21.3889C9.09675 21.1309 8.89172 20.8165 8.763 20.4689C8.654 20.1879 8.523 19.7639 8.488 18.9839C8.45 18.1409 8.442 17.8879 8.442 15.7509C8.442 13.6149 8.45 13.3629 8.488 12.5199C8.524 11.7399 8.654 11.3159 8.764 11.0339C8.909 10.6609 9.083 10.3939 9.363 10.1139C9.643 9.83388 9.909 9.66088 10.283 9.51588C10.565 9.40588 10.988 9.27588 11.768 9.23988C12.506 9.20588 12.792 9.19588 14.283 9.19488V9.19688ZM19.271 10.5249C19.1449 10.5249 19.0201 10.5497 18.9036 10.598C18.7872 10.6462 18.6813 10.7169 18.5922 10.8061C18.503 10.8952 18.4323 11.001 18.3841 11.1175C18.3358 11.234 18.311 11.3588 18.311 11.4849C18.311 11.611 18.3358 11.7358 18.3841 11.8523C18.4323 11.9687 18.503 12.0746 18.5922 12.1637C18.6813 12.2528 18.7872 12.3236 18.9036 12.3718C19.0201 12.4201 19.1449 12.4449 19.271 12.4449C19.5256 12.4449 19.7698 12.3437 19.9498 12.1637C20.1299 11.9837 20.231 11.7395 20.231 11.4849C20.231 11.2303 20.1299 10.9861 19.9498 10.8061C19.7698 10.626 19.5256 10.5249 19.271 10.5249ZM15.001 11.6469C14.4561 11.6384 13.9149 11.7384 13.409 11.941C12.9031 12.1437 12.4425 12.445 12.0542 12.8273C11.6658 13.2097 11.3574 13.6654 11.1468 14.1681C10.9363 14.6708 10.8279 15.2104 10.8279 15.7554C10.8279 16.3004 10.9363 16.8399 11.1468 17.3426C11.3574 17.8453 11.6658 18.3011 12.0542 18.6835C12.4425 19.0658 12.9031 19.3671 13.409 19.5697C13.9149 19.7724 14.4561 19.8724 15.001 19.8639C16.0795 19.8471 17.1082 19.4068 17.865 18.6381C18.6217 17.8695 19.0459 16.8341 19.0459 15.7554C19.0459 14.6767 18.6217 13.6413 17.865 12.8726C17.1082 12.104 16.0795 11.6637 15.001 11.6469ZM15.001 13.0879C15.7083 13.0879 16.3867 13.3689 16.8869 13.869C17.387 14.3692 17.668 15.0476 17.668 15.7549C17.668 16.4622 17.387 17.1406 16.8869 17.6407C16.3867 18.1409 15.7083 18.4219 15.001 18.4219C14.2937 18.4219 13.6153 18.1409 13.1151 17.6407C12.615 17.1406 12.334 16.4622 12.334 15.7549C12.334 15.0476 12.615 14.3692 13.1151 13.869C13.6153 13.3689 14.2937 13.0879 15.001 13.0879Z" fill="black"/>
</svg>
