<svg width="30" height="31" viewBox="0 0 30 31" fill="none" xmlns="http://www.w3.org/2000/svg">
<path d="M30 15.7549C30 19.7331 28.4196 23.5484 25.6066 26.3615C22.7936 29.1745 18.9782 30.7549 15 30.7549C11.0218 30.7549 7.20644 29.1745 4.3934 26.3615C1.58035 23.5484 0 19.7331 0 15.7549C0 11.7766 1.58035 7.96133 4.3934 5.14828C7.20644 2.33524 11.0218 0.754883 15 0.754883C18.9782 0.754883 22.7936 2.33524 25.6066 5.14828C28.4196 7.96133 30 11.7766 30 15.7549ZM15.5381 11.8286C14.0794 12.4361 11.1619 13.6924 6.78938 15.5974C6.08063 15.8786 5.7075 16.1561 5.67375 16.4261C5.6175 16.8818 6.18938 17.0618 6.9675 17.3074L7.29563 17.4105C8.06063 17.6599 9.09188 17.9505 9.62625 17.9618C10.1137 17.973 10.6556 17.7743 11.2537 17.3618C15.3394 14.6036 17.4488 13.2105 17.58 13.1805C17.6737 13.158 17.805 13.1318 17.8913 13.2105C17.9794 13.2874 17.97 13.4355 17.9606 13.4749C17.9044 13.7168 15.66 15.8018 14.4994 16.8818C14.1375 17.2193 13.8806 17.4574 13.8281 17.5118C13.7125 17.6299 13.595 17.7462 13.4756 17.8605C12.7631 18.5468 12.2306 19.0605 13.5037 19.9005C14.1169 20.3055 14.6081 20.6374 15.0975 20.9711C15.63 21.3349 16.1625 21.6968 16.8525 22.1505C17.0269 22.263 17.1956 22.3849 17.3588 22.5011C17.9794 22.9436 18.54 23.3411 19.2281 23.2774C19.6294 23.2399 20.0438 22.8649 20.2537 21.7399C20.7506 19.083 21.7275 13.3286 21.9525 10.9568C21.9662 10.7596 21.9581 10.5615 21.9281 10.3661C21.9105 10.2085 21.8342 10.0632 21.7144 9.95926C21.5438 9.84149 21.3404 9.78047 21.1331 9.78488C20.5706 9.79426 19.7025 10.0961 15.5381 11.8286Z" fill="white"/>
</svg>
